<svg
  width="160"
  height="160"
  viewBox="0 0 160 160"
  fill="none"
  xmlns="http://www.w3.org/2000/svg"
>
<g filter="url(#filter0_d_2_395)">
<circle cx="80" cy="80" r="30" fill="white" />
<path
      d="M76.4909 79.3182C76.8545 79.9364 77.0455 80.6273 77.0545 81.3909C77.0909 83.3909 75.8 85.0546 73.9909 85.3091C72.7364 85.4818 71.7455 84.9637 70.9818 83.9909C69.9091 82.6091 69.8364 80.6637 70.7909 79.1818C72.1909 77 75.1636 77.0727 76.4909 79.3182Z"
      fill="url(#paint0_linear_2_395)"
    />
<path
      d="M89.2543 79.2553C89.6725 79.928 89.8543 80.6644 89.8634 81.4735C89.827 82.5553 89.4997 83.5371 88.7179 84.328C87.3725 85.6917 85.3543 85.6735 84.0361 84.2917C82.727 82.9189 82.5634 80.6462 83.6543 79.0917C85.1179 77.0189 87.9179 77.1007 89.2543 79.2553Z"
      fill="url(#paint1_linear_2_395)"
    />
<path
      d="M80 50C63.4273 50 50 63.4273 50 80C50 96.5636 63.4273 110 80 110C96.5636 110 110 96.5636 110 80C110 63.4273 96.5636 50 80 50ZM99.1455 89.4364C99.1273 89.6636 99.0455 89.8273 98.8545 89.9636C96.0364 92 92.9818 93.5545 89.6636 94.6091C89.4273 94.6818 89.2818 94.6455 89.1364 94.4364C88.5 93.5273 87.9273 92.5909 87.4 91.6182C87.2455 91.3364 87.3545 91.2636 87.5909 91.1727C88.4636 90.8364 89.3091 90.4182 90.1364 89.9727C90.4273 89.8182 90.5364 89.7182 90.2 89.4545C89.8818 89.2 89.6273 89.1636 89.2364 89.3273C83.0545 91.9818 76.8727 91.9364 70.7 89.3091C70.2909 89.1364 69.8636 89.2455 69.6182 89.6182C69.4545 89.8545 69.7091 89.8727 69.8091 89.9273C70.6091 90.3818 71.4364 90.8091 72.3 91.1182C72.6636 91.2455 72.7273 91.3818 72.5364 91.7273C72.0182 92.6545 71.4636 93.5545 70.8636 94.4273C70.7091 94.6545 70.5636 94.6909 70.3 94.6091C67.0364 93.5636 64.0182 92.0273 61.2273 90.0364C60.9909 89.8636 60.8636 89.6727 60.8455 89.3727C60.7727 88.3727 60.7455 87.3818 60.7364 86.7455C60.7182 79.6727 62.7545 73.6 66.4455 68.0455C66.5727 67.8636 66.7273 67.7455 66.9273 67.6545C69.2727 66.6091 71.7 65.8455 74.2273 65.3909C74.5 65.3455 74.6455 65.4 74.7636 65.6455C74.9909 66.1364 75.2545 66.6182 75.4818 67.1091C75.5727 67.3182 75.6727 67.4091 75.9182 67.3727C78.6455 66.9909 81.3727 66.9909 84.1 67.3727C84.3455 67.4091 84.4545 67.3455 84.5455 67.1273C84.7727 66.6182 85.0364 66.1273 85.2727 65.6182C85.3727 65.4091 85.4909 65.3455 85.7273 65.3909C88.3 65.8455 90.7727 66.6273 93.1636 67.6909C93.3545 67.7727 93.4727 67.9182 93.5909 68.0818C97.9 74.5364 99.8182 81.6545 99.1455 89.4364Z"
      fill="url(#paint2_linear_2_395)"
    />
</g>
<defs>
<filter
      id="filter0_d_2_395"
      x="0"
      y="0"
      width="160"
      height="160"
      filterUnits="userSpaceOnUse"
      color-interpolation-filters="sRGB"
    >
<feFlood flood-opacity="0" result="BackgroundImageFix" />
<feColorMatrix
        in="SourceAlpha"
        type="matrix"
        values="0 0 0 0 0 0 0 0 0 0 0 0 0 0 0 0 0 0 127 0"
        result="hardAlpha"
      />
<feOffset />
<feGaussianBlur stdDeviation="25" />
<feComposite in2="hardAlpha" operator="out" />
<feColorMatrix
        type="matrix"
        values="0 0 0 0 0.732417 0 0 0 0 0.295833 0 0 0 0 1 0 0 0 0.32 0"
      />
<feBlend
        mode="normal"
        in2="BackgroundImageFix"
        result="effect1_dropShadow_2_395"
      />
<feBlend
        mode="normal"
        in="SourceGraphic"
        in2="effect1_dropShadow_2_395"
        result="shape"
      />
</filter>
<linearGradient
      id="paint0_linear_2_395"
      x1="69.7144"
      y1="76.7959"
      x2="78.1753"
      y2="76.9905"
      gradientUnits="userSpaceOnUse"
    >
<stop stop-color="#DA458F" />
<stop offset="1" stop-color="#DA34DD" />
</linearGradient>
<linearGradient
      id="paint1_linear_2_395"
      x1="82.5252"
      y1="76.794"
      x2="90.983"
      y2="76.9885"
      gradientUnits="userSpaceOnUse"
    >
<stop stop-color="#DA458F" />
<stop offset="1" stop-color="#DA34DD" />
</linearGradient>
<linearGradient
      id="paint2_linear_2_395"
      x1="46.4643"
      y1="43.8636"
      x2="119.684"
      y2="45.7467"
      gradientUnits="userSpaceOnUse"
    >
<stop stop-color="#DA458F" />
<stop offset="1" stop-color="#DA34DD" />
</linearGradient>
</defs>
</svg>
