<svg
  width="160"
  height="160"
  viewBox="0 0 160 160"
  fill="none"
  xmlns="http://www.w3.org/2000/svg"
>
<g filter="url(#filter0_d_2_377)">
<circle cx="80" cy="80" r="30" fill="white" />
<path
      d="M110 80C110 63.4297 96.5703 50 80 50C63.4297 50 50 63.4297 50 80C50 96.5703 63.4297 110 80 110C80.1758 110 80.3516 110 80.5273 109.988V86.6445H74.082V79.1328H80.5273V73.6016C80.5273 67.1914 84.4414 63.6992 90.1602 63.6992C92.9023 63.6992 95.2578 63.8984 95.9375 63.9922V70.6953H92C88.8945 70.6953 88.2852 72.1719 88.2852 74.3398V79.1211H95.7266L94.7539 86.6328H88.2852V108.84C100.824 105.242 110 93.6992 110 80Z"
      fill="url(#paint0_linear_2_377)"
    />
</g>
<defs>
<filter
      id="filter0_d_2_377"
      x="0"
      y="0"
      width="160"
      height="160"
      filterUnits="userSpaceOnUse"
      color-interpolation-filters="sRGB"
    >
<feFlood flood-opacity="0" result="BackgroundImageFix" />
<feColorMatrix
        in="SourceAlpha"
        type="matrix"
        values="0 0 0 0 0 0 0 0 0 0 0 0 0 0 0 0 0 0 127 0"
        result="hardAlpha"
      />
<feOffset />
<feGaussianBlur stdDeviation="25" />
<feComposite in2="hardAlpha" operator="out" />
<feColorMatrix
        type="matrix"
        values="0 0 0 0 0.732417 0 0 0 0 0.295833 0 0 0 0 1 0 0 0 0.32 0"
      />
<feBlend
        mode="normal"
        in2="BackgroundImageFix"
        result="effect1_dropShadow_2_377"
      />
<feBlend
        mode="normal"
        in="SourceGraphic"
        in2="effect1_dropShadow_2_377"
        result="shape"
      />
</filter>
<linearGradient
      id="paint0_linear_2_377"
      x1="46.4643"
      y1="43.8636"
      x2="119.684"
      y2="45.7467"
      gradientUnits="userSpaceOnUse"
    >
<stop stop-color="#DA458F" />
<stop offset="1" stop-color="#DA34DD" />
</linearGradient>
</defs>
</svg>
