<svg
  width="1920"
  height="446"
  viewBox="0 0 1920 446"
  fill="none"
  xmlns="http://www.w3.org/2000/svg"
>
<rect
    width="1920"
    height="446"
    transform="matrix(-1 0 0 1 1920 0)"
    fill="url(#paint0_linear_0_1)"
  />
<path
    d="M-966.917 434L-967 433.666L159.344 206L159.427 206.334L-966.917 434Z"
    fill="url(#paint1_linear_0_1)"
  />
<path
    d="M-783.373 434L-783.498 433.708L235.591 206L235.674 206.334L-783.373 434Z"
    fill="url(#paint2_linear_0_1)"
  />
<path
    d="M-599.871 434L-599.954 433.708L311.838 206L311.963 206.334L-599.871 434Z"
    fill="url(#paint3_linear_0_1)"
  />
<path
    d="M-416.327 434L-416.452 433.708L388.043 206L388.21 206.334L-416.327 434Z"
    fill="url(#paint4_linear_0_1)"
  />
<path
    d="M-232.783 434L-232.95 433.708L464.29 206L464.457 206.334L-232.783 434Z"
    fill="url(#paint5_linear_0_1)"
  />
<path
    d="M-49.2816 434L-49.4485 433.708L540.537 206L540.704 206.292L-49.2816 434Z"
    fill="url(#paint6_linear_0_1)"
  />
<path
    d="M134.262 434L134.054 433.708L616.784 206L616.993 206.292L134.262 434Z"
    fill="url(#paint7_linear_0_1)"
  />
<path
    d="M317.806 434L317.555 433.708L692.99 206.042L693.24 206.292L317.806 434Z"
    fill="url(#paint8_linear_0_1)"
  />
<path
    d="M501.349 433.958L501.057 433.75L769.236 206.042L769.529 206.292L501.349 433.958Z"
    fill="url(#paint9_linear_0_1)"
  />
<path
    d="M684.893 433.917L684.518 433.75L845.442 206.083L845.817 206.25L684.893 433.917Z"
    fill="url(#paint10_linear_0_1)"
  />
<path
    d="M868.437 433.875L868.02 433.833L921.647 206.125L922.064 206.209L868.437 433.875Z"
    fill="url(#paint11_linear_0_1)"
  />
<path
    d="M1051.56 433.875L997.894 206.209L998.312 206.125L1051.94 433.833L1051.56 433.875Z"
    fill="url(#paint12_linear_0_1)"
  />
<path
    d="M1235.11 433.917L1074.18 206.25L1074.56 206.083L1235.44 433.75L1235.11 433.917Z"
    fill="url(#paint13_linear_0_1)"
  />
<path
    d="M1418.65 433.958L1150.47 206.292L1150.76 206.042L1418.94 433.75L1418.65 433.958Z"
    fill="url(#paint14_linear_0_1)"
  />
<path
    d="M1602.19 434L1226.72 206.292L1226.97 206.042L1602.44 433.708L1602.19 434Z"
    fill="url(#paint15_linear_0_1)"
  />
<path
    d="M1785.7 434L1303.01 206.292L1303.22 206L1785.95 433.708L1785.7 434Z"
    fill="url(#paint16_linear_0_1)"
  />
<path
    d="M1969.24 434L1379.25 206.292L1379.46 206L1969.45 433.708L1969.24 434Z"
    fill="url(#paint17_linear_0_1)"
  />
<path
    d="M2152.78 434L1455.54 206.334L1455.67 206L2152.95 433.708L2152.78 434Z"
    fill="url(#paint18_linear_0_1)"
  />
<path
    d="M2336.33 434L1531.79 206.334L1531.92 206L2336.45 433.708L2336.33 434Z"
    fill="url(#paint19_linear_0_1)"
  />
<path
    d="M2519.83 434L1608.04 206.334L1608.16 206L2519.95 433.708L2519.83 434Z"
    fill="url(#paint20_linear_0_1)"
  />
<path
    d="M2703.37 434L1684.28 206.334L1684.41 206L2703.46 433.708L2703.37 434Z"
    fill="url(#paint21_linear_0_1)"
  />
<path
    d="M2886.88 434L1760.53 206.334L1760.66 206L2887 433.666L2886.88 434Z"
    fill="url(#paint22_linear_0_1)"
  />
<path
    d="M1769.42 206.125H150.58V206.459H1769.42V206.125Z"
    fill="url(#paint23_linear_0_1)"
  />
<path
    d="M1806.44 213.597H113.521V213.931H1806.44V213.597Z"
    fill="url(#paint24_linear_0_1)"
  />
<path
    d="M1847.04 221.821H72.9139V222.154H1847.04V221.821Z"
    fill="url(#paint25_linear_0_1)"
  />
<path
    d="M1891.78 230.837H28.2592V231.171H1891.78V230.837Z"
    fill="url(#paint26_linear_0_1)"
  />
<path
    d="M1941.15 240.814H-21.1948V241.148H1941.15V240.814Z"
    fill="url(#paint27_linear_0_1)"
  />
<path
    d="M1996.16 251.959H-76.158V252.293H1996.16V251.959Z"
    fill="url(#paint28_linear_0_1)"
  />
<path
    d="M2057.63 264.357H-137.673V264.691H2057.63V264.357Z"
    fill="url(#paint29_linear_0_1)"
  />
<path
    d="M2126.91 278.382H-206.909V278.716H2126.91V278.382Z"
    fill="url(#paint30_linear_0_1)"
  />
<path
    d="M2205.49 294.245H-285.493V294.579H2205.49V294.245Z"
    fill="url(#paint31_linear_0_1)"
  />
<path
    d="M2295.39 312.445H-375.428V312.779H2295.39V312.445Z"
    fill="url(#paint32_linear_0_1)"
  />
<path
    d="M2399.34 333.441H-479.345V333.775H2399.34V333.441Z"
    fill="url(#paint33_linear_0_1)"
  />
<path
    d="M2520.79 357.986H-600.831V358.32H2520.79V357.986Z"
    fill="url(#paint34_linear_0_1)"
  />
<path
    d="M2664.64 387.081H-744.686V387.415H2664.64V387.081Z"
    fill="url(#paint35_linear_0_1)"
  />
<path
    d="M2837.71 422.062H-917.755V422.395H2837.71V422.062Z"
    fill="url(#paint36_linear_0_1)"
  />
<defs>
<linearGradient
      id="paint0_linear_0_1"
      x1="960"
      y1="0"
      x2="960"
      y2="446"
      gradientUnits="userSpaceOnUse"
    >
<stop offset="0.166667" stop-color="#212026" stop-opacity="0" />
<stop offset="0.463542" stop-color="#E253FA" stop-opacity="0.4" />
<stop offset="0.942708" stop-color="#212026" stop-opacity="0" />
</linearGradient>
<linearGradient
      id="paint1_linear_0_1"
      x1="-1033.38"
      y1="182.682"
      x2="320.294"
      y2="354.682"
      gradientUnits="userSpaceOnUse"
    >
<stop stop-color="#DA458F" />
<stop offset="1" stop-color="#DA34DD" />
</linearGradient>
<linearGradient
      id="paint2_linear_0_1"
      x1="-843.556"
      y1="182.682"
      x2="384.763"
      y2="323.893"
      gradientUnits="userSpaceOnUse"
    >
<stop stop-color="#DA458F" />
<stop offset="1" stop-color="#DA34DD" />
</linearGradient>
<linearGradient
      id="paint3_linear_0_1"
      x1="-653.692"
      y1="182.682"
      x2="448.228"
      y2="296.031"
      gradientUnits="userSpaceOnUse"
    >
<stop stop-color="#DA458F" />
<stop offset="1" stop-color="#DA34DD" />
</linearGradient>
<linearGradient
      id="paint4_linear_0_1"
      x1="-463.87"
      y1="182.682"
      x2="510.708"
      y2="271.141"
      gradientUnits="userSpaceOnUse"
    >
<stop stop-color="#DA458F" />
<stop offset="1" stop-color="#DA34DD" />
</linearGradient>
<linearGradient
      id="paint5_linear_0_1"
      x1="-274.048"
      y1="182.682"
      x2="572.348"
      y2="249.266"
      gradientUnits="userSpaceOnUse"
    >
<stop stop-color="#DA458F" />
<stop offset="1" stop-color="#DA34DD" />
</linearGradient>
<linearGradient
      id="paint6_linear_0_1"
      x1="-84.2253"
      y1="182.682"
      x2="633.255"
      y2="230.444"
      gradientUnits="userSpaceOnUse"
    >
<stop stop-color="#DA458F" />
<stop offset="1" stop-color="#DA34DD" />
</linearGradient>
<linearGradient
      id="paint7_linear_0_1"
      x1="105.595"
      y1="182.682"
      x2="693.587"
      y2="214.713"
      gradientUnits="userSpaceOnUse"
    >
<stop stop-color="#DA458F" />
<stop offset="1" stop-color="#DA34DD" />
</linearGradient>
<linearGradient
      id="paint8_linear_0_1"
      x1="295.417"
      y1="182.728"
      x2="753.358"
      y2="202.138"
      gradientUnits="userSpaceOnUse"
    >
<stop stop-color="#DA458F" />
<stop offset="1" stop-color="#DA34DD" />
</linearGradient>
<linearGradient
      id="paint9_linear_0_1"
      x1="485.237"
      y1="182.732"
      x2="812.778"
      y2="192.655"
      gradientUnits="userSpaceOnUse"
    >
<stop stop-color="#DA458F" />
<stop offset="1" stop-color="#DA34DD" />
</linearGradient>
<linearGradient
      id="paint10_linear_0_1"
      x1="675.013"
      y1="182.782"
      x2="871.917"
      y2="186.367"
      gradientUnits="userSpaceOnUse"
    >
<stop stop-color="#DA458F" />
<stop offset="1" stop-color="#DA34DD" />
</linearGradient>
<linearGradient
      id="paint11_linear_0_1"
      x1="864.835"
      y1="182.832"
      x2="930.829"
      y2="183.235"
      gradientUnits="userSpaceOnUse"
    >
<stop stop-color="#DA458F" />
<stop offset="1" stop-color="#DA34DD" />
</linearGradient>
<linearGradient
      id="paint12_linear_0_1"
      x1="994.71"
      y1="182.832"
      x2="1060.7"
      y2="183.235"
      gradientUnits="userSpaceOnUse"
    >
<stop stop-color="#DA458F" />
<stop offset="1" stop-color="#DA34DD" />
</linearGradient>
<linearGradient
      id="paint13_linear_0_1"
      x1="1064.68"
      y1="182.782"
      x2="1261.53"
      y2="186.366"
      gradientUnits="userSpaceOnUse"
    >
<stop stop-color="#DA458F" />
<stop offset="1" stop-color="#DA34DD" />
</linearGradient>
<linearGradient
      id="paint14_linear_0_1"
      x1="1134.65"
      y1="182.732"
      x2="1462.19"
      y2="192.655"
      gradientUnits="userSpaceOnUse"
    >
<stop stop-color="#DA458F" />
<stop offset="1" stop-color="#DA34DD" />
</linearGradient>
<linearGradient
      id="paint15_linear_0_1"
      x1="1204.58"
      y1="182.728"
      x2="1662.57"
      y2="202.142"
      gradientUnits="userSpaceOnUse"
    >
<stop stop-color="#DA458F" />
<stop offset="1" stop-color="#DA34DD" />
</linearGradient>
<linearGradient
      id="paint16_linear_0_1"
      x1="1274.55"
      y1="182.682"
      x2="1862.54"
      y2="214.713"
      gradientUnits="userSpaceOnUse"
    >
<stop stop-color="#DA458F" />
<stop offset="1" stop-color="#DA34DD" />
</linearGradient>
<linearGradient
      id="paint17_linear_0_1"
      x1="1344.47"
      y1="182.682"
      x2="2062.01"
      y2="230.451"
      gradientUnits="userSpaceOnUse"
    >
<stop stop-color="#DA458F" />
<stop offset="1" stop-color="#DA34DD" />
</linearGradient>
<linearGradient
      id="paint18_linear_0_1"
      x1="1414.45"
      y1="182.682"
      x2="2260.84"
      y2="249.266"
      gradientUnits="userSpaceOnUse"
    >
<stop stop-color="#DA458F" />
<stop offset="1" stop-color="#DA34DD" />
</linearGradient>
<linearGradient
      id="paint19_linear_0_1"
      x1="1484.37"
      y1="182.682"
      x2="2458.95"
      y2="271.141"
      gradientUnits="userSpaceOnUse"
    >
<stop stop-color="#DA458F" />
<stop offset="1" stop-color="#DA34DD" />
</linearGradient>
<linearGradient
      id="paint20_linear_0_1"
      x1="1554.3"
      y1="182.682"
      x2="2656.22"
      y2="296.031"
      gradientUnits="userSpaceOnUse"
    >
<stop stop-color="#DA458F" />
<stop offset="1" stop-color="#DA34DD" />
</linearGradient>
<linearGradient
      id="paint21_linear_0_1"
      x1="1624.23"
      y1="182.682"
      x2="2852.55"
      y2="323.893"
      gradientUnits="userSpaceOnUse"
    >
<stop stop-color="#DA458F" />
<stop offset="1" stop-color="#DA34DD" />
</linearGradient>
<linearGradient
      id="paint22_linear_0_1"
      x1="1694.15"
      y1="182.682"
      x2="3047.87"
      y2="354.694"
      gradientUnits="userSpaceOnUse"
    >
<stop stop-color="#DA458F" />
<stop offset="1" stop-color="#DA34DD" />
</linearGradient>
<linearGradient
      id="paint23_linear_0_1"
      x1="55.1839"
      y1="206.091"
      x2="55.3111"
      y2="221.946"
      gradientUnits="userSpaceOnUse"
    >
<stop stop-color="#DA458F" />
<stop offset="1" stop-color="#DA34DD" />
</linearGradient>
<linearGradient
      id="paint24_linear_0_1"
      x1="13.7596"
      y1="213.563"
      x2="13.8812"
      y2="229.418"
      gradientUnits="userSpaceOnUse"
    >
<stop stop-color="#DA458F" />
<stop offset="1" stop-color="#DA34DD" />
</linearGradient>
<linearGradient
      id="paint25_linear_0_1"
      x1="-31.633"
      y1="221.786"
      x2="-31.5169"
      y2="237.641"
      gradientUnits="userSpaceOnUse"
    >
<stop stop-color="#DA458F" />
<stop offset="1" stop-color="#DA34DD" />
</linearGradient>
<linearGradient
      id="paint26_linear_0_1"
      x1="-81.5556"
      y1="230.803"
      x2="-81.4451"
      y2="246.658"
      gradientUnits="userSpaceOnUse"
    >
<stop stop-color="#DA458F" />
<stop offset="1" stop-color="#DA34DD" />
</linearGradient>
<linearGradient
      id="paint27_linear_0_1"
      x1="-136.833"
      y1="240.779"
      x2="-136.728"
      y2="256.635"
      gradientUnits="userSpaceOnUse"
    >
<stop stop-color="#DA458F" />
<stop offset="1" stop-color="#DA34DD" />
</linearGradient>
<linearGradient
      id="paint28_linear_0_1"
      x1="-198.277"
      y1="251.925"
      x2="-198.177"
      y2="267.78"
      gradientUnits="userSpaceOnUse"
    >
<stop stop-color="#DA458F" />
<stop offset="1" stop-color="#DA34DD" />
</linearGradient>
<linearGradient
      id="paint29_linear_0_1"
      x1="-267.039"
      y1="264.323"
      x2="-266.945"
      y2="280.178"
      gradientUnits="userSpaceOnUse"
    >
<stop stop-color="#DA458F" />
<stop offset="1" stop-color="#DA34DD" />
</linearGradient>
<linearGradient
      id="paint30_linear_0_1"
      x1="-344.437"
      y1="278.348"
      x2="-344.349"
      y2="294.204"
      gradientUnits="userSpaceOnUse"
    >
<stop stop-color="#DA458F" />
<stop offset="1" stop-color="#DA34DD" />
</linearGradient>
<linearGradient
      id="paint31_linear_0_1"
      x1="-432.283"
      y1="294.21"
      x2="-432.2"
      y2="310.066"
      gradientUnits="userSpaceOnUse"
    >
<stop stop-color="#DA458F" />
<stop offset="1" stop-color="#DA34DD" />
</linearGradient>
<linearGradient
      id="paint32_linear_0_1"
      x1="-532.816"
      y1="312.41"
      x2="-532.739"
      y2="328.266"
      gradientUnits="userSpaceOnUse"
    >
<stop stop-color="#DA458F" />
<stop offset="1" stop-color="#DA34DD" />
</linearGradient>
<linearGradient
      id="paint33_linear_0_1"
      x1="-648.982"
      y1="333.407"
      x2="-648.91"
      y2="349.263"
      gradientUnits="userSpaceOnUse"
    >
<stop stop-color="#DA458F" />
<stop offset="1" stop-color="#DA34DD" />
</linearGradient>
<linearGradient
      id="paint34_linear_0_1"
      x1="-784.783"
      y1="357.952"
      x2="-784.717"
      y2="373.807"
      gradientUnits="userSpaceOnUse"
    >
<stop stop-color="#DA458F" />
<stop offset="1" stop-color="#DA34DD" />
</linearGradient>
<linearGradient
      id="paint35_linear_0_1"
      x1="-945.593"
      y1="387.047"
      x2="-945.532"
      y2="402.903"
      gradientUnits="userSpaceOnUse"
    >
<stop stop-color="#DA458F" />
<stop offset="1" stop-color="#DA34DD" />
</linearGradient>
<linearGradient
      id="paint36_linear_0_1"
      x1="-1139.06"
      y1="422.027"
      x2="-1139"
      y2="437.884"
      gradientUnits="userSpaceOnUse"
    >
<stop stop-color="#DA458F" />
<stop offset="1" stop-color="#DA34DD" />
</linearGradient>
</defs>
</svg>
