<svg
  width="206"
  height="90"
  viewBox="0 0 206 90"
  fill="none"
  xmlns="http://www.w3.org/2000/svg"
>
        <path
    d="M64.7781 7.58163L68.2796 0L50.5532 0.00778831L35.4529 0C24.9483 0 20.0357 8.77846 18.8207 14.2788C16.971 22.6558 21.5431 31.4818 29.3077 35.4332C33.7336 37.6858 35.6962 37.8597 58.7896 38.0501C61.7957 38.0752 62.1791 38.4066 65.046 43.4518L68.1002 48.8267L65.1773 52.2017C61.9217 55.9618 60.1062 62.2861 60.9807 66.8207C62.889 76.7146 70.188 82.5352 80.7731 82.6053L86.7011 82.6442L88.9202 86.3221C90.9957 89.7629 91.3879 90 95.0059 90H98.8724L96.1876 85.4567C94.7117 82.9575 93.1623 80.5595 92.7456 80.1277C92.3097 79.676 93.0231 78.0188 94.4211 76.2335C98.1099 71.5223 99.1735 68.1222 98.7542 62.3882C98.3017 56.2067 95.3779 51.3372 90.0039 47.8203C86.9909 45.8472 85.297 45.4059 80.2513 45.2804L74.1455 45.1289L65.7165 30.1362L57.2875 15.1442H47.6828H37.6413L37.5407 22.5H45.4515H53.3623L55.1314 25.9269C56.104 27.8117 56.8997 29.5641 56.8997 29.8212C56.8997 30.0782 52.2716 30.2876 46.614 30.2867C38.5517 30.2859 35.6796 29.9588 33.3266 28.7723C24.5036 24.3251 26.5601 7.58163 35.8906 7.58163H51.7586H64.7781Z"
    fill="white"
  />
        <path
    d="M111.611 38.3582L111.846 19.1795L112.082 0H93.6823H75.2827V19.0385V38.0769L85.5684 38.1401C91.226 38.1747 99.3994 38.2379 103.733 38.2803L111.611 38.3582Z"
    fill="white"
  />
        <path
    d="M53.8359 52.3558L54.1046 48.6779L54.3742 45L40.9739 45.0035C25.7931 45.0069 23.3823 45.7563 20.7202 51.3026C18.9292 55.0341 18.8854 57.1535 20.5189 61.0183C22.6855 66.1457 26.1231 67.4931 37.0426 67.4965C47.3405 67.5 49.8967 68.2468 49.8967 71.2514C49.8967 75.1734 49.1561 75.2885 23.8979 75.2885H0V79.1827V83.0769H23.6633C49.1438 83.0769 51.0014 82.8052 55.0316 78.4826C57.9274 75.3767 58.4237 69.6687 56.1145 66.0323C52.9675 61.0797 50.7405 60.2602 39.5418 59.9348C29.2937 59.6363 27.1368 58.9959 27.1368 56.25C27.1368 53.3795 29.2666 52.843 41.6392 52.5972L53.8359 52.3558Z"
    fill="white"
  />
        <path
    d="M116.821 72.6923C112.916 69.1304 112.049 65.912 112.049 54.9796V45H108.303H104.558L104.874 56.899C105.133 66.6571 105.512 69.4739 106.985 72.5538C109.028 76.8288 114.186 80.9161 119.234 82.26C127.044 84.3387 136.839 80.0031 140.667 72.7728C142.493 69.3242 142.687 67.8107 142.687 56.9795V45H138.891H135.096L135.489 53.8702C135.956 64.4045 134.945 68.8145 131.263 72.3012C128.963 74.4802 127.877 74.8558 123.879 74.8558C120.096 74.8558 118.736 74.4387 116.821 72.6923Z"
    fill="white"
  />
        <path
    d="M158.444 83.0769V64.0385V45H154.505H150.565V64.0385V83.0769H154.505H158.444Z"
    fill="white"
  />
        <path
    d="M205.714 63.6058C205.714 63.3721 197.445 59.0902 187.339 54.0909C177.233 49.0907 168.764 45 168.519 45C168.273 45 168.08 46.6546 168.089 48.6779L168.104 52.3558L179.048 57.9661L189.992 63.5764L179.033 69.0058L168.073 74.4361V78.3242C168.073 80.4617 168.273 82.2115 168.519 82.2115C169.365 82.2115 205.714 64.0289 205.714 63.6058Z"
    fill="white"
  />
        <path
    d="M83.1605 60.8695C83.1605 60.5545 82.1591 58.6074 80.9353 56.5426C78.4221 52.3039 79.1119 51.8159 84.4823 54.0347C88.7323 55.7897 91.235 60.0388 90.757 64.6867C90.5487 66.71 89.879 68.9591 89.2689 69.6861C88.3025 70.8379 87.9523 70.6709 86.5482 68.3888C85.1371 66.0956 84.4456 65.7693 80.9852 65.7693C78.8116 65.7693 77.0328 65.9917 77.0328 66.2643C77.0328 66.5361 78.0553 68.4832 79.3044 70.5913L81.5761 74.4232H78.8361C75.4309 74.4232 72.0861 72.3246 70.4228 69.1452C68.6563 65.7685 68.8148 60.3174 70.7485 57.9566L72.3434 56.0104L73.4814 58.7268C74.5371 61.246 74.9284 61.4424 78.8895 61.4424C81.239 61.4424 83.1605 61.1845 83.1605 60.8695Z"
    fill="url(#paint0_linear_73_198)"
  />
        <path
    d="M84.0364 30.2882V19.4709V8.65356H93.6656H103.295V19.4709V30.2882H93.6656H84.0364Z"
    fill="url(#paint1_linear_73_198)"
  />
        <defs>
          <linearGradient
      id="paint0_linear_73_198"
      x1="67.9179"
      y1="50.517"
      x2="94.3054"
      y2="51.1936"
      gradientUnits="userSpaceOnUse"
    >
            <stop stop-color="#DA458F" />
            <stop offset="1" stop-color="#DA34DD" />
          </linearGradient>
          <linearGradient
      id="paint1_linear_73_198"
      x1="82.9015"
      y1="6.44091"
      x2="106.406"
      y2="6.97903"
      gradientUnits="userSpaceOnUse"
    >
      <stop stop-color="#DA458F" />
      <stop offset="1" stop-color="#DA34DD" />
    </linearGradient>
  </defs>
</svg>
