<svg width="84" height="36" viewBox="0 0 84 36" fill="none" xmlns="http://www.w3.org/2000/svg">
<path d="M26.4511 3.03265L27.8809 0L20.6426 0.00311532L14.4766 0C10.1872 0 8.18124 3.51138 7.68511 5.71153C6.92982 9.0623 8.79677 12.5927 11.9673 14.1733C13.7746 15.0743 14.576 15.1439 24.0058 15.22C25.2332 15.2301 25.3898 15.3626 26.5604 17.3807L27.8076 19.5307L26.6141 20.8807C25.2847 22.3847 24.5434 24.9144 24.9005 26.7283C25.6797 30.6858 28.6601 33.0141 32.9823 33.0421L35.403 33.0577L36.3091 34.5288C37.1566 35.9051 37.3167 36 38.7941 36H40.3729L39.2766 34.1827C38.674 33.183 38.0413 32.2238 37.8711 32.0511C37.6931 31.8704 37.9844 31.2075 38.5553 30.4934C40.0616 28.6089 40.4959 27.2489 40.3246 24.9553C40.1399 22.4827 38.946 20.5349 36.7516 19.1281C35.5213 18.3389 34.8296 18.1623 32.7693 18.1121L30.2761 18.0516L26.8342 12.0545L23.3924 6.05769H19.4705H15.3702L15.3291 8.99999H18.5594H21.7896L22.512 10.3708C22.9091 11.1247 23.234 11.8256 23.234 11.9285C23.234 12.0313 21.3442 12.115 19.034 12.1147C15.742 12.1143 14.5692 11.9835 13.6084 11.5089C10.0057 9.73003 10.8454 3.03265 14.6553 3.03265H21.1348H26.4511Z" fill="white"/>
<path d="M45.5745 15.3433L45.6706 7.6718L45.7668 0H38.2536H30.7404V7.61538V15.2308L34.9404 15.256C37.2506 15.2699 40.5881 15.2951 42.3574 15.3121L45.5745 15.3433Z" fill="white"/>
<path d="M21.983 20.9423L22.0927 19.4711L22.2028 18L16.731 18.0014C10.5322 18.0028 9.54776 18.3025 8.46077 20.521C7.72943 22.0136 7.71156 22.8614 8.37855 24.4073C9.26323 26.4583 10.6669 26.9972 15.1257 26.9986C19.3307 27 20.3745 27.2987 20.3745 28.5006C20.3745 30.0693 20.0721 30.1154 9.7583 30.1154H0V31.6731V33.2307H9.6625C20.0671 33.2307 20.8256 33.1221 22.4713 31.393C23.6537 30.1507 23.8564 27.8674 22.9134 26.4129C21.6284 24.4319 20.719 24.1041 16.1462 23.9739C11.9616 23.8545 11.0809 23.5983 11.0809 22.5C11.0809 21.3518 11.9505 21.1372 17.0027 21.0389L21.983 20.9423Z" fill="white"/>
<path d="M47.702 29.0769C46.1074 27.6521 45.7532 26.3648 45.7532 21.9918V18H44.2237H42.6945L42.8236 22.7596C42.9294 26.6628 43.0841 27.7896 43.6854 29.0215C44.5196 30.7315 46.6261 32.3664 48.6871 32.904C51.8763 33.7354 55.8757 32.0012 57.4392 29.1091C58.1848 27.7297 58.2638 27.1243 58.2638 22.7918V18H56.7139H55.1641L55.3245 21.5481C55.5154 25.7618 55.1026 27.5258 53.5991 28.9204C52.6598 29.7921 52.2165 29.9423 50.5841 29.9423C49.0392 29.9423 48.4837 29.7754 47.702 29.0769Z" fill="white"/>
<path d="M64.6979 33.2307V25.6154V18H63.0894H61.4809V25.6154V33.2307H63.0894H64.6979Z" fill="white"/>
<path d="M84 25.4423C84 25.3488 80.6236 23.6361 76.4968 21.6363C72.3701 19.6363 68.9118 18 68.8117 18C68.7116 18 68.6327 18.6618 68.6362 19.4711L68.6423 20.9423L73.1115 23.1864L77.5803 25.4305L73.105 27.6023L68.6298 29.7744V31.3297C68.6298 32.1847 68.7116 32.8846 68.8117 32.8846C69.1574 32.8846 84 25.6116 84 25.4423Z" fill="white"/>
<path d="M33.9572 24.3478C33.9572 24.2218 33.5482 23.4429 33.0485 22.617C32.0223 20.9215 32.304 20.7263 34.4969 21.6138C36.2323 22.3158 37.2543 24.0155 37.0591 25.8746C36.974 26.6839 36.7006 27.5836 36.4514 27.8744C36.0568 28.3351 35.9138 28.2683 35.3405 27.3555C34.7643 26.4382 34.4819 26.3077 33.0689 26.3077C32.1814 26.3077 31.455 26.3966 31.455 26.5057C31.455 26.6144 31.8725 27.3932 32.3826 28.2364L33.3102 29.7692H32.1914C30.8009 29.7692 29.4351 28.9298 28.756 27.658C28.0346 26.3073 28.0993 24.1269 28.8889 23.1826L29.5402 22.4041L30.0049 23.4907C30.436 24.4983 30.5957 24.5769 32.2132 24.5769C33.1726 24.5769 33.9572 24.4738 33.9572 24.3478Z" fill="url(#paint0_linear_80_322)"/>
<path d="M34.3149 12.1153V7.78835V3.46143H38.2469H42.1788V7.78835V12.1153H38.2469H34.3149Z" fill="url(#paint1_linear_80_322)"/>
<defs>
<linearGradient id="paint0_linear_80_322" x1="27.7331" y1="20.2067" x2="38.5077" y2="20.4888" gradientUnits="userSpaceOnUse">
<stop stop-color="#DA458F"/>
<stop offset="1" stop-color="#DA34DD"/>
</linearGradient>
<linearGradient id="paint1_linear_80_322" x1="33.8515" y1="2.57637" x2="43.4491" y2="2.80067" gradientUnits="userSpaceOnUse">
<stop stop-color="#DA458F"/>
<stop offset="1" stop-color="#DA34DD"/>
</linearGradient>
</defs>
</svg>
