<svg width="1920" height="300" viewBox="0 0 1920 300" fill="none" xmlns="http://www.w3.org/2000/svg">
<path d="M600 6L596 2L592 6L596 10L600 6Z" fill="#FBC625"/>
<path d="M106 0L102 4L98 0H106Z" fill="#FBC625"/>
<path d="M214 9L210 13L206 9H214Z" fill="#FBC625"/>
<path d="M1279 2L1275 6L1271 2H1279Z" fill="#FBC625"/>
<path d="M1772 13L1768 17L1764 13H1772Z" fill="#FBC625"/>
<path d="M1772 9L1768 13L1764 9H1772Z" fill="#FBC625"/>
<path d="M1706 9L1712 3H1708L1702 9H1706Z" fill="#FBC625"/>
<path d="M416 2L411 7H398L403 2H416Z" fill="#FBC625"/>
<path d="M896 11H904L900 7L896 11Z" fill="#FBC625"/>
<path d="M1271 10H1279L1275 6L1271 10Z" fill="#FBC625"/>
<path d="M13 13L0 0V300H1920V13H1906L1902 9L1898 13H1784.5L1774 24H1746L1722 0L1709 13H1452L1442 24H1435L1432 20H1406L1386 0H1331L1319 13H1292L1289 10L1284 16L1281 13H1010L997 0H946L922 24H916L906 13H621L616 18L605 8L600 13H470L460 24H454L430 0L417 13H214L210 18L206 13H181L168 0H118L98 20H73L66 13H13Z" fill="#FBC625"/>
</svg>
